<svg width="62" height="62" viewBox="0 0 62 62" fill="none" xmlns="http://www.w3.org/2000/svg">
<g id="bitcoin-svgrepo-com (2)">
<path id="Vector" fill-rule="evenodd" clip-rule="evenodd" d="M60.6395 30.3247C60.6395 46.5685 47.4719 59.7367 31.229 59.7367C14.9859 59.7367 1.81836 46.5685 1.81836 30.3247C1.81836 14.0808 14.9859 0.912598 31.229 0.912598C47.4719 0.912598 60.6395 14.0808 60.6395 30.3247ZM38.2947 19.397C42.3859 20.802 45.3785 22.9056 44.7913 26.8208C44.365 29.6877 42.7698 31.0743 40.6505 31.5597C43.5581 33.0678 44.5492 35.9297 43.6283 39.39C41.8801 44.3699 37.7243 44.7891 32.1968 43.7482L30.8547 49.1014L27.6146 48.2959L28.9383 43.0146C28.0984 42.8067 27.2399 42.5843 26.3555 42.347L25.0263 47.6542L21.7899 46.8488L23.1302 41.4845L16.604 39.8442L18.2139 36.1479C18.2139 36.1479 20.6028 36.7787 20.5696 36.7327C21.4872 36.9589 21.8951 36.3631 22.0558 35.9678L25.6928 21.4382C25.7333 20.7522 25.4951 19.8881 24.1825 19.5607C24.2323 19.5257 21.8287 18.9777 21.8287 18.9777L22.6909 15.5297L29.2262 17.1425L30.5556 11.839L33.7938 12.6444L32.4922 17.8431C33.3636 18.0399 34.2388 18.2403 35.0898 18.4518L36.3821 13.2862L39.6222 14.0917L38.2947 19.397ZM30.5421 28.244C32.7491 28.8292 37.5518 30.1026 38.3889 26.7639C39.2429 23.348 34.577 22.3165 32.2925 21.8113C32.0337 21.7541 31.8051 21.7036 31.6189 21.6573L30.0054 28.1045C30.1592 28.1425 30.3397 28.1904 30.5421 28.244ZM28.0415 38.6245C30.6849 39.3209 36.4664 40.8437 37.3864 37.1649C38.328 33.4033 32.7225 32.1506 29.9874 31.5391C29.6821 31.4709 29.4119 31.4106 29.1912 31.3557L27.4115 38.4614C27.5922 38.5061 27.8046 38.5621 28.0415 38.6245Z" fill="#F7931A"/>
</g>
</svg>
