<svg width="62" height="62" viewBox="0 0 62 62" fill="none" xmlns="http://www.w3.org/2000/svg">
<g id="eth-svgrepo-com" clip-path="url(#clip0_15_320)">
<g id="Group">
<path id="Vector" d="M31 62C48.1208 62 62 48.1208 62 31C62 13.8792 48.1208 0 31 0C13.8792 0 0 13.8792 0 31C0 48.1208 13.8792 62 31 62Z" fill="#627EEA"/>
<g id="Group_2">
<path id="Vector_2" d="M31.9644 7.75V24.9356L46.4898 31.4262L31.9644 7.75Z" fill="white" fill-opacity="0.602"/>
<path id="Vector_3" d="M31.9644 7.75L17.437 31.4262L31.9644 24.9356V7.75Z" fill="white"/>
<path id="Vector_4" d="M31.9644 42.5633V54.2407L46.4995 34.1313L31.9644 42.5633Z" fill="white" fill-opacity="0.602"/>
<path id="Vector_5" d="M31.9644 54.2407V42.5614L17.437 34.1313L31.9644 54.2407Z" fill="white"/>
<path id="Vector_6" d="M31.9644 39.8601L46.4898 31.4262L31.9644 24.9395V39.8601Z" fill="white" fill-opacity="0.2"/>
<path id="Vector_7" d="M17.437 31.4262L31.9644 39.8601V24.9395L17.437 31.4262Z" fill="white" fill-opacity="0.602"/>
</g>
</g>
</g>
<defs>
<clipPath id="clip0_15_320">
<rect width="62" height="62" fill="white"/>
</clipPath>
</defs>
</svg>
