<svg width="86" height="40" viewBox="0 0 86 40" fill="none" xmlns="http://www.w3.org/2000/svg">
<path fill-rule="evenodd" clip-rule="evenodd" d="M60.7894 34.7143C74.91 32.5606 72.6254 11.5994 58.9642 11.9275V11.9319C58.9357 11.9306 58.9072 11.9295 58.8787 11.9285V11.9275C58.8403 11.9266 58.802 11.9259 58.7637 11.9253C58.7056 11.9241 58.6476 11.9236 58.5897 11.9238C45.625 11.8968 43.1862 31.2434 55.7277 34.4459C57.5438 35.1633 58.9981 35.2439 60.7894 34.7143ZM62.4127 24.0688C62.6972 23.1072 62.6883 22.0408 62.3602 21.1213C61.5872 19.6821 60.3738 18.9533 59.1242 18.816C59.0715 18.8144 59.0182 18.8137 58.9642 18.8138V18.8016C58.9357 18.7996 58.9072 18.798 58.8787 18.7966V18.8138C53.7373 18.7982 54.2879 26.8477 58.8787 26.8478V26.9344C58.9072 26.9328 58.9357 26.9308 58.9642 26.9285V26.8478C59.2622 26.8478 59.5431 26.8139 59.8066 26.7505C60.8327 26.3948 61.781 25.5285 62.4127 24.0688Z" fill="#86633A"/>
<path d="M56.61 10.9533C51.9538 11.4437 49.5703 13.0545 46.9241 17.3562C46.703 17.7157 46.1636 17.6933 45.9709 17.3178C43.7127 12.9165 41.3548 11.3551 36.5621 10.9348C36.0491 10.8898 35.8754 10.2081 36.3184 9.94558C44.387 5.16403 49.3123 5.12423 56.8609 9.97873C57.2812 10.249 57.107 10.901 56.61 10.9533Z" fill="#86633A"/>
<path fill-rule="evenodd" clip-rule="evenodd" d="M35.8158 34.7181C49.9637 32.5851 47.6844 11.5992 34.0153 11.9275V11.9325C33.9828 11.931 33.9503 11.9296 33.9178 11.9285V11.9275C33.8794 11.9266 33.841 11.9259 33.8028 11.9253C33.7447 11.9241 33.6867 11.9236 33.6287 11.9238C20.664 11.8968 18.2253 31.2434 30.7668 34.4459C32.5786 35.1616 34.0303 35.2435 35.8158 34.7181ZM37.4884 23.9825C37.741 23.0669 37.7303 22.0641 37.4343 21.1875C36.6623 19.7028 35.4292 18.9537 34.159 18.8155C34.1116 18.8142 34.0637 18.8137 34.0153 18.8138V18.8025C33.9828 18.8001 33.9503 18.7982 33.9178 18.7966V18.8138C28.7764 18.7982 29.3269 26.8477 33.9178 26.8478V26.9344C33.9503 26.9326 33.9828 26.9303 34.0153 26.9275V26.8478C34.2989 26.8478 34.5671 26.8171 34.8195 26.7594C35.8757 26.4026 36.8519 25.5071 37.4884 23.9825Z" fill="#86633A"/>
<path d="M6.05304 3.12012C7.5091 3.12012 8.23713 5.65782 8.23713 10.7332L8.61154 20.468H8.73635L18.7207 16.5991C19.7192 8.11232 20.6344 3.86895 21.4665 3.86895L22.2777 3.74414C22.9849 3.74414 23.6297 4.30576 24.2122 5.42901C22.7561 12.5845 22.0281 18.7831 22.0281 24.025V26.7083C22.0281 30.5356 22.9433 34.1758 24.7738 37.6287C24.3578 38.7935 23.6921 39.376 22.7769 39.376C20.78 39.376 19.3032 35.3406 18.3463 27.2699V20.9048H17.9719C11.7317 23.1097 8.61154 24.5242 8.61154 25.1482C8.61154 35.0494 7.69631 40 5.86583 40H5.61622C4.74259 40 4.18097 39.272 3.93136 37.8159C4.55538 33.2813 4.86739 29.766 4.86739 27.2699L2.12168 28.7051L1.56006 28.8299C0.520021 28.4555 0 27.8107 0 26.8955C0 25.9802 1.62246 24.545 4.86739 22.5897V22.4649C4.74259 15.3094 4.47218 9.38117 4.05616 4.68018C4.05616 3.76494 4.72179 3.24492 6.05304 3.12012Z" fill="#86633A"/>
<path d="M72.8988 0C74.0636 0.249612 74.646 0.832035 74.646 1.74727L74.2716 4.49298V5.30421C74.2716 7.13469 74.4796 9.06916 74.8956 11.1076H75.0204C79.8462 9.65159 82.8416 8.92356 84.0064 8.92356C85.2128 9.25637 85.8161 9.8596 85.8161 10.7332C85.8161 12.1477 84.3808 12.8549 81.5103 12.8549L75.0204 15.1638C75.0204 20.78 75.6237 28.4139 76.8301 38.0655C76.5805 39.1888 75.9773 39.7504 75.0204 39.7504H74.8956C73.4396 39.7504 72.7115 37.8783 72.7115 34.1342C72.1707 31.3469 71.7131 25.2938 71.3387 15.975H70.2154C66.3049 15.7254 64.3496 14.8102 64.3496 13.2293C64.3496 12.7717 64.7864 12.2101 65.6601 11.5445H66.2841L69.1546 12.2933H71.1515L70.5899 4.49298C70.5899 1.49766 71.3595 0 72.8988 0Z" fill="#86633A"/>
</svg>
