<svg width="1440" height="800" viewBox="0 0 1440 800" fill="none" xmlns="http://www.w3.org/2000/svg">
<g clip-path="url(#clip0_4576_135)">
<rect x="20.1" y="0.1" width="99.8" height="49.8" stroke="#C7B7A4" stroke-width="0.2"/>
<rect x="120.1" y="0.1" width="99.8" height="49.8" stroke="#C7B7A4" stroke-width="0.2"/>
<rect x="220.1" y="0.1" width="99.8" height="49.8" stroke="#C7B7A4" stroke-width="0.2"/>
<rect x="320.1" y="0.1" width="99.8" height="49.8" stroke="#C7B7A4" stroke-width="0.2"/>
<rect x="420.1" y="0.1" width="99.8" height="49.8" stroke="#C7B7A4" stroke-width="0.2"/>
<rect x="520.1" y="0.1" width="99.8" height="49.8" stroke="#C7B7A4" stroke-width="0.2"/>
<rect x="620.1" y="0.1" width="99.8" height="49.8" stroke="#C7B7A4" stroke-width="0.2"/>
<rect x="720.1" y="0.1" width="99.8" height="49.8" stroke="#C7B7A4" stroke-width="0.2"/>
<rect x="820.1" y="0.1" width="99.8" height="49.8" stroke="#C7B7A4" stroke-width="0.2"/>
<rect x="920.1" y="0.1" width="99.8" height="49.8" stroke="#C7B7A4" stroke-width="0.2"/>
<rect x="1020.1" y="0.1" width="99.8" height="49.8" stroke="#C7B7A4" stroke-width="0.2"/>
<rect x="1120.1" y="0.1" width="99.8" height="49.8" stroke="#C7B7A4" stroke-width="0.2"/>
<rect x="1220.1" y="0.1" width="99.8" height="49.8" stroke="#C7B7A4" stroke-width="0.2"/>
<rect x="1320.1" y="0.1" width="99.8" height="49.8" stroke="#C7B7A4" stroke-width="0.2"/>
<rect x="20.1" y="50.1" width="99.8" height="49.8" stroke="#C7B7A4" stroke-width="0.2"/>
<rect x="120.1" y="50.1" width="99.8" height="49.8" stroke="#C7B7A4" stroke-width="0.2"/>
<rect x="220.1" y="50.1" width="99.8" height="49.8" stroke="#C7B7A4" stroke-width="0.2"/>
<rect x="320.1" y="50.1" width="99.8" height="49.8" stroke="#C7B7A4" stroke-width="0.2"/>
<rect x="420.1" y="50.1" width="99.8" height="49.8" stroke="#C7B7A4" stroke-width="0.2"/>
<rect x="520.1" y="50.1" width="99.8" height="49.8" stroke="#C7B7A4" stroke-width="0.2"/>
<rect x="620.1" y="50.1" width="99.8" height="49.8" stroke="#C7B7A4" stroke-width="0.2"/>
<rect x="720.1" y="50.1" width="99.8" height="49.8" stroke="#C7B7A4" stroke-width="0.2"/>
<rect x="820.1" y="50.1" width="99.8" height="49.8" stroke="#C7B7A4" stroke-width="0.2"/>
<rect x="920.1" y="50.1" width="99.8" height="49.8" stroke="#C7B7A4" stroke-width="0.2"/>
<rect x="1020.1" y="50.1" width="99.8" height="49.8" stroke="#C7B7A4" stroke-width="0.2"/>
<rect x="1120.1" y="50.1" width="99.8" height="49.8" stroke="#C7B7A4" stroke-width="0.2"/>
<rect x="1220.1" y="50.1" width="99.8" height="49.8" stroke="#C7B7A4" stroke-width="0.2"/>
<rect x="1320.1" y="50.1" width="99.8" height="49.8" stroke="#C7B7A4" stroke-width="0.2"/>
<rect x="20.1" y="100.1" width="99.8" height="49.8" stroke="#C7B7A4" stroke-width="0.2"/>
<rect x="120.1" y="100.1" width="99.8" height="49.8" stroke="#C7B7A4" stroke-width="0.2"/>
<rect x="220.1" y="100.1" width="99.8" height="49.8" stroke="#C7B7A4" stroke-width="0.2"/>
<rect x="320.1" y="100.1" width="99.8" height="49.8" stroke="#C7B7A4" stroke-width="0.2"/>
<rect x="420.1" y="100.1" width="99.8" height="49.8" stroke="#C7B7A4" stroke-width="0.2"/>
<rect x="520.1" y="100.1" width="99.8" height="49.8" stroke="#C7B7A4" stroke-width="0.2"/>
<rect x="620.1" y="100.1" width="99.8" height="49.8" stroke="#C7B7A4" stroke-width="0.2"/>
<rect x="720.1" y="100.1" width="99.8" height="49.8" stroke="#C7B7A4" stroke-width="0.2"/>
<rect x="820.1" y="100.1" width="99.8" height="49.8" stroke="#C7B7A4" stroke-width="0.2"/>
<rect x="920.1" y="100.1" width="99.8" height="49.8" stroke="#C7B7A4" stroke-width="0.2"/>
<rect x="1020.1" y="100.1" width="99.8" height="49.8" stroke="#C7B7A4" stroke-width="0.2"/>
<rect x="1120.1" y="100.1" width="99.8" height="49.8" stroke="#C7B7A4" stroke-width="0.2"/>
<rect x="1220.1" y="100.1" width="99.8" height="49.8" stroke="#C7B7A4" stroke-width="0.2"/>
<rect x="1320.1" y="100.1" width="99.8" height="49.8" stroke="#C7B7A4" stroke-width="0.2"/>
<rect x="20.1" y="150.1" width="99.8" height="49.8" stroke="#C7B7A4" stroke-width="0.2"/>
<rect x="120.1" y="150.1" width="99.8" height="49.8" stroke="#C7B7A4" stroke-width="0.2"/>
<rect x="220.1" y="150.1" width="99.8" height="49.8" stroke="#C7B7A4" stroke-width="0.2"/>
<rect x="320.1" y="150.1" width="99.8" height="49.8" stroke="#C7B7A4" stroke-width="0.2"/>
<rect x="420.1" y="150.1" width="99.8" height="49.8" stroke="#C7B7A4" stroke-width="0.2"/>
<rect x="520.1" y="150.1" width="99.8" height="49.8" stroke="#C7B7A4" stroke-width="0.2"/>
<rect x="620.1" y="150.1" width="99.8" height="49.8" stroke="#C7B7A4" stroke-width="0.2"/>
<rect x="720.1" y="150.1" width="99.8" height="49.8" stroke="#C7B7A4" stroke-width="0.2"/>
<rect x="820.1" y="150.1" width="99.8" height="49.8" stroke="#C7B7A4" stroke-width="0.2"/>
<rect x="920.1" y="150.1" width="99.8" height="49.8" stroke="#C7B7A4" stroke-width="0.2"/>
<rect x="1020.1" y="150.1" width="99.8" height="49.8" stroke="#C7B7A4" stroke-width="0.2"/>
<rect x="1120.1" y="150.1" width="99.8" height="49.8" stroke="#C7B7A4" stroke-width="0.2"/>
<rect x="1220.1" y="150.1" width="99.8" height="49.8" stroke="#C7B7A4" stroke-width="0.2"/>
<rect x="1320.1" y="150.1" width="99.8" height="49.8" stroke="#C7B7A4" stroke-width="0.2"/>
<rect x="20.1" y="200.1" width="99.8" height="49.8" stroke="#C7B7A4" stroke-width="0.2"/>
<rect x="120.1" y="200.1" width="99.8" height="49.8" stroke="#C7B7A4" stroke-width="0.2"/>
<rect x="220.1" y="200.1" width="99.8" height="49.8" stroke="#C7B7A4" stroke-width="0.2"/>
<rect x="320.1" y="200.1" width="99.8" height="49.8" stroke="#C7B7A4" stroke-width="0.2"/>
<rect x="420.1" y="200.1" width="99.8" height="49.8" stroke="#C7B7A4" stroke-width="0.2"/>
<rect x="520.1" y="200.1" width="99.8" height="49.8" stroke="#C7B7A4" stroke-width="0.2"/>
<rect x="620.1" y="200.1" width="99.8" height="49.8" stroke="#C7B7A4" stroke-width="0.2"/>
<rect x="720.1" y="200.1" width="99.8" height="49.8" stroke="#C7B7A4" stroke-width="0.2"/>
<rect x="820.1" y="200.1" width="99.8" height="49.8" stroke="#C7B7A4" stroke-width="0.2"/>
<rect x="920.1" y="200.1" width="99.8" height="49.8" stroke="#C7B7A4" stroke-width="0.2"/>
<rect x="1020.1" y="200.1" width="99.8" height="49.8" stroke="#C7B7A4" stroke-width="0.2"/>
<rect x="1120.1" y="200.1" width="99.8" height="49.8" stroke="#C7B7A4" stroke-width="0.2"/>
<rect x="1220.1" y="200.1" width="99.8" height="49.8" stroke="#C7B7A4" stroke-width="0.2"/>
<rect x="1320.1" y="200.1" width="99.8" height="49.8" stroke="#C7B7A4" stroke-width="0.2"/>
<rect x="20.1" y="250.1" width="99.8" height="49.8" stroke="#C7B7A4" stroke-width="0.2"/>
<rect x="120.1" y="250.1" width="99.8" height="49.8" stroke="#C7B7A4" stroke-width="0.2"/>
<rect x="220.1" y="250.1" width="99.8" height="49.8" stroke="#C7B7A4" stroke-width="0.2"/>
<rect x="320.1" y="250.1" width="99.8" height="49.8" stroke="#C7B7A4" stroke-width="0.2"/>
<rect x="420.1" y="250.1" width="99.8" height="49.8" stroke="#C7B7A4" stroke-width="0.2"/>
<rect x="520.1" y="250.1" width="99.8" height="49.8" stroke="#C7B7A4" stroke-width="0.2"/>
<rect x="620.1" y="250.1" width="99.8" height="49.8" stroke="#C7B7A4" stroke-width="0.2"/>
<rect x="720.1" y="250.1" width="99.8" height="49.8" stroke="#C7B7A4" stroke-width="0.2"/>
<rect x="820.1" y="250.1" width="99.8" height="49.8" stroke="#C7B7A4" stroke-width="0.2"/>
<rect x="920.1" y="250.1" width="99.8" height="49.8" stroke="#C7B7A4" stroke-width="0.2"/>
<rect x="1020.1" y="250.1" width="99.8" height="49.8" stroke="#C7B7A4" stroke-width="0.2"/>
<rect x="1120.1" y="250.1" width="99.8" height="49.8" stroke="#C7B7A4" stroke-width="0.2"/>
<rect x="1220.1" y="250.1" width="99.8" height="49.8" stroke="#C7B7A4" stroke-width="0.2"/>
<rect x="1320.1" y="250.1" width="99.8" height="49.8" stroke="#C7B7A4" stroke-width="0.2"/>
<rect x="20.1" y="300.1" width="99.8" height="49.8" stroke="#C7B7A4" stroke-width="0.2"/>
<rect x="120.1" y="300.1" width="99.8" height="49.8" stroke="#C7B7A4" stroke-width="0.2"/>
<rect x="220.1" y="300.1" width="99.8" height="49.8" stroke="#C7B7A4" stroke-width="0.2"/>
<rect x="320.1" y="300.1" width="99.8" height="49.8" stroke="#C7B7A4" stroke-width="0.2"/>
<rect x="420.1" y="300.1" width="99.8" height="49.8" stroke="#C7B7A4" stroke-width="0.2"/>
<rect x="520.1" y="300.1" width="99.8" height="49.8" stroke="#C7B7A4" stroke-width="0.2"/>
<rect x="620.1" y="300.1" width="99.8" height="49.8" stroke="#C7B7A4" stroke-width="0.2"/>
<rect x="720.1" y="300.1" width="99.8" height="49.8" stroke="#C7B7A4" stroke-width="0.2"/>
<rect x="820.1" y="300.1" width="99.8" height="49.8" stroke="#C7B7A4" stroke-width="0.2"/>
<rect x="920.1" y="300.1" width="99.8" height="49.8" stroke="#C7B7A4" stroke-width="0.2"/>
<rect x="1020.1" y="300.1" width="99.8" height="49.8" stroke="#C7B7A4" stroke-width="0.2"/>
<rect x="1120.1" y="300.1" width="99.8" height="49.8" stroke="#C7B7A4" stroke-width="0.2"/>
<rect x="1220.1" y="300.1" width="99.8" height="49.8" stroke="#C7B7A4" stroke-width="0.2"/>
<rect x="1320.1" y="300.1" width="99.8" height="49.8" stroke="#C7B7A4" stroke-width="0.2"/>
<rect x="20.1" y="350.1" width="99.8" height="49.8" stroke="#C7B7A4" stroke-width="0.2"/>
<rect x="120.1" y="350.1" width="99.8" height="49.8" stroke="#C7B7A4" stroke-width="0.2"/>
<rect x="220.1" y="350.1" width="99.8" height="49.8" stroke="#C7B7A4" stroke-width="0.2"/>
<rect x="320.1" y="350.1" width="99.8" height="49.8" stroke="#C7B7A4" stroke-width="0.2"/>
<rect x="420.1" y="350.1" width="99.8" height="49.8" stroke="#C7B7A4" stroke-width="0.2"/>
<rect x="520.1" y="350.1" width="99.8" height="49.8" stroke="#C7B7A4" stroke-width="0.2"/>
<rect x="620.1" y="350.1" width="99.8" height="49.8" stroke="#C7B7A4" stroke-width="0.2"/>
<rect x="720.1" y="350.1" width="99.8" height="49.8" stroke="#C7B7A4" stroke-width="0.2"/>
<rect x="820.1" y="350.1" width="99.8" height="49.8" stroke="#C7B7A4" stroke-width="0.2"/>
<rect x="920.1" y="350.1" width="99.8" height="49.8" stroke="#C7B7A4" stroke-width="0.2"/>
<rect x="1020.1" y="350.1" width="99.8" height="49.8" stroke="#C7B7A4" stroke-width="0.2"/>
<rect x="1120.1" y="350.1" width="99.8" height="49.8" stroke="#C7B7A4" stroke-width="0.2"/>
<rect x="1220.1" y="350.1" width="99.8" height="49.8" stroke="#C7B7A4" stroke-width="0.2"/>
<rect x="1320.1" y="350.1" width="99.8" height="49.8" stroke="#C7B7A4" stroke-width="0.2"/>
<rect x="20.1" y="400.1" width="99.8" height="49.8" stroke="#C7B7A4" stroke-width="0.2"/>
<rect x="120.1" y="400.1" width="99.8" height="49.8" stroke="#C7B7A4" stroke-width="0.2"/>
<rect x="220.1" y="400.1" width="99.8" height="49.8" stroke="#C7B7A4" stroke-width="0.2"/>
<rect x="320.1" y="400.1" width="99.8" height="49.8" stroke="#C7B7A4" stroke-width="0.2"/>
<rect x="420.1" y="400.1" width="99.8" height="49.8" stroke="#C7B7A4" stroke-width="0.2"/>
<rect x="520.1" y="400.1" width="99.8" height="49.8" stroke="#C7B7A4" stroke-width="0.2"/>
<rect x="620.1" y="400.1" width="99.8" height="49.8" stroke="#C7B7A4" stroke-width="0.2"/>
<rect x="720.1" y="400.1" width="99.8" height="49.8" stroke="#C7B7A4" stroke-width="0.2"/>
<rect x="820.1" y="400.1" width="99.8" height="49.8" stroke="#C7B7A4" stroke-width="0.2"/>
<rect x="920.1" y="400.1" width="99.8" height="49.8" stroke="#C7B7A4" stroke-width="0.2"/>
<rect x="1020.1" y="400.1" width="99.8" height="49.8" stroke="#C7B7A4" stroke-width="0.2"/>
<rect x="1120.1" y="400.1" width="99.8" height="49.8" stroke="#C7B7A4" stroke-width="0.2"/>
<rect x="1220.1" y="400.1" width="99.8" height="49.8" stroke="#C7B7A4" stroke-width="0.2"/>
<rect x="1320.1" y="400.1" width="99.8" height="49.8" stroke="#C7B7A4" stroke-width="0.2"/>
<rect x="20.1" y="450.1" width="99.8" height="49.8" stroke="#C7B7A4" stroke-width="0.2"/>
<rect x="120.1" y="450.1" width="99.8" height="49.8" stroke="#C7B7A4" stroke-width="0.2"/>
<rect x="220.1" y="450.1" width="99.8" height="49.8" stroke="#C7B7A4" stroke-width="0.2"/>
<rect x="320.1" y="450.1" width="99.8" height="49.8" stroke="#C7B7A4" stroke-width="0.2"/>
<rect x="420.1" y="450.1" width="99.8" height="49.8" stroke="#C7B7A4" stroke-width="0.2"/>
<rect x="520.1" y="450.1" width="99.8" height="49.8" stroke="#C7B7A4" stroke-width="0.2"/>
<rect x="620.1" y="450.1" width="99.8" height="49.8" stroke="#C7B7A4" stroke-width="0.2"/>
<rect x="720.1" y="450.1" width="99.8" height="49.8" stroke="#C7B7A4" stroke-width="0.2"/>
<rect x="820.1" y="450.1" width="99.8" height="49.8" stroke="#C7B7A4" stroke-width="0.2"/>
<rect x="920.1" y="450.1" width="99.8" height="49.8" stroke="#C7B7A4" stroke-width="0.2"/>
<rect x="1020.1" y="450.1" width="99.8" height="49.8" stroke="#C7B7A4" stroke-width="0.2"/>
<rect x="1120.1" y="450.1" width="99.8" height="49.8" stroke="#C7B7A4" stroke-width="0.2"/>
<rect x="1220.1" y="450.1" width="99.8" height="49.8" stroke="#C7B7A4" stroke-width="0.2"/>
<rect x="1320.1" y="450.1" width="99.8" height="49.8" stroke="#C7B7A4" stroke-width="0.2"/>
<rect x="20.1" y="500.1" width="99.8" height="49.8" stroke="#C7B7A4" stroke-width="0.2"/>
<rect x="120.1" y="500.1" width="99.8" height="49.8" stroke="#C7B7A4" stroke-width="0.2"/>
<rect x="220.1" y="500.1" width="99.8" height="49.8" stroke="#C7B7A4" stroke-width="0.2"/>
<rect x="320.1" y="500.1" width="99.8" height="49.8" stroke="#C7B7A4" stroke-width="0.2"/>
<rect x="420.1" y="500.1" width="99.8" height="49.8" stroke="#C7B7A4" stroke-width="0.2"/>
<rect x="520.1" y="500.1" width="99.8" height="49.8" stroke="#C7B7A4" stroke-width="0.2"/>
<rect x="620.1" y="500.1" width="99.8" height="49.8" stroke="#C7B7A4" stroke-width="0.2"/>
<rect x="720.1" y="500.1" width="99.8" height="49.8" stroke="#C7B7A4" stroke-width="0.2"/>
<rect x="820.1" y="500.1" width="99.8" height="49.8" stroke="#C7B7A4" stroke-width="0.2"/>
<rect x="920.1" y="500.1" width="99.8" height="49.8" stroke="#C7B7A4" stroke-width="0.2"/>
<rect x="1020.1" y="500.1" width="99.8" height="49.8" stroke="#C7B7A4" stroke-width="0.2"/>
<rect x="1120.1" y="500.1" width="99.8" height="49.8" stroke="#C7B7A4" stroke-width="0.2"/>
<rect x="1220.1" y="500.1" width="99.8" height="49.8" stroke="#C7B7A4" stroke-width="0.2"/>
<rect x="1320.1" y="500.1" width="99.8" height="49.8" stroke="#C7B7A4" stroke-width="0.2"/>
<rect x="20.1" y="550.1" width="99.8" height="49.8" stroke="#C7B7A4" stroke-width="0.2"/>
<rect x="120.1" y="550.1" width="99.8" height="49.8" stroke="#C7B7A4" stroke-width="0.2"/>
<rect x="220.1" y="550.1" width="99.8" height="49.8" stroke="#C7B7A4" stroke-width="0.2"/>
<rect x="320.1" y="550.1" width="99.8" height="49.8" stroke="#C7B7A4" stroke-width="0.2"/>
<rect x="420.1" y="550.1" width="99.8" height="49.8" stroke="#C7B7A4" stroke-width="0.2"/>
<rect x="520.1" y="550.1" width="99.8" height="49.8" stroke="#C7B7A4" stroke-width="0.2"/>
<rect x="620.1" y="550.1" width="99.8" height="49.8" stroke="#C7B7A4" stroke-width="0.2"/>
<rect x="720.1" y="550.1" width="99.8" height="49.8" stroke="#C7B7A4" stroke-width="0.2"/>
<rect x="820.1" y="550.1" width="99.8" height="49.8" stroke="#C7B7A4" stroke-width="0.2"/>
<rect x="920.1" y="550.1" width="99.8" height="49.8" stroke="#C7B7A4" stroke-width="0.2"/>
<rect x="1020.1" y="550.1" width="99.8" height="49.8" stroke="#C7B7A4" stroke-width="0.2"/>
<rect x="1120.1" y="550.1" width="99.8" height="49.8" stroke="#C7B7A4" stroke-width="0.2"/>
<rect x="1220.1" y="550.1" width="99.8" height="49.8" stroke="#C7B7A4" stroke-width="0.2"/>
<rect x="1320.1" y="550.1" width="99.8" height="49.8" stroke="#C7B7A4" stroke-width="0.2"/>
<rect x="20.1" y="600.1" width="99.8" height="49.8" stroke="#C7B7A4" stroke-width="0.2"/>
<rect x="120.1" y="600.1" width="99.8" height="49.8" stroke="#C7B7A4" stroke-width="0.2"/>
<rect x="220.1" y="600.1" width="99.8" height="49.8" stroke="#C7B7A4" stroke-width="0.2"/>
<rect x="320.1" y="600.1" width="99.8" height="49.8" stroke="#C7B7A4" stroke-width="0.2"/>
<rect x="420.1" y="600.1" width="99.8" height="49.8" stroke="#C7B7A4" stroke-width="0.2"/>
<rect x="520.1" y="600.1" width="99.8" height="49.8" stroke="#C7B7A4" stroke-width="0.2"/>
<rect x="620.1" y="600.1" width="99.8" height="49.8" stroke="#C7B7A4" stroke-width="0.2"/>
<rect x="720.1" y="600.1" width="99.8" height="49.8" stroke="#C7B7A4" stroke-width="0.2"/>
<rect x="820.1" y="600.1" width="99.8" height="49.8" stroke="#C7B7A4" stroke-width="0.2"/>
<rect x="920.1" y="600.1" width="99.8" height="49.8" stroke="#C7B7A4" stroke-width="0.2"/>
<rect x="1020.1" y="600.1" width="99.8" height="49.8" stroke="#C7B7A4" stroke-width="0.2"/>
<rect x="1120.1" y="600.1" width="99.8" height="49.8" stroke="#C7B7A4" stroke-width="0.2"/>
<rect x="1220.1" y="600.1" width="99.8" height="49.8" stroke="#C7B7A4" stroke-width="0.2"/>
<rect x="1320.1" y="600.1" width="99.8" height="49.8" stroke="#C7B7A4" stroke-width="0.2"/>
<rect x="20.1" y="650.1" width="99.8" height="49.8" stroke="#C7B7A4" stroke-width="0.2"/>
<rect x="120.1" y="650.1" width="99.8" height="49.8" stroke="#C7B7A4" stroke-width="0.2"/>
<rect x="220.1" y="650.1" width="99.8" height="49.8" stroke="#C7B7A4" stroke-width="0.2"/>
<rect x="320.1" y="650.1" width="99.8" height="49.8" stroke="#C7B7A4" stroke-width="0.2"/>
<rect x="420.1" y="650.1" width="99.8" height="49.8" stroke="#C7B7A4" stroke-width="0.2"/>
<rect x="520.1" y="650.1" width="99.8" height="49.8" stroke="#C7B7A4" stroke-width="0.2"/>
<rect x="620.1" y="650.1" width="99.8" height="49.8" stroke="#C7B7A4" stroke-width="0.2"/>
<rect x="720.1" y="650.1" width="99.8" height="49.8" stroke="#C7B7A4" stroke-width="0.2"/>
<rect x="820.1" y="650.1" width="99.8" height="49.8" stroke="#C7B7A4" stroke-width="0.2"/>
<rect x="920.1" y="650.1" width="99.8" height="49.8" stroke="#C7B7A4" stroke-width="0.2"/>
<rect x="1020.1" y="650.1" width="99.8" height="49.8" stroke="#C7B7A4" stroke-width="0.2"/>
<rect x="1120.1" y="650.1" width="99.8" height="49.8" stroke="#C7B7A4" stroke-width="0.2"/>
<rect x="1220.1" y="650.1" width="99.8" height="49.8" stroke="#C7B7A4" stroke-width="0.2"/>
<rect x="1320.1" y="650.1" width="99.8" height="49.8" stroke="#C7B7A4" stroke-width="0.2"/>
<rect x="20.1" y="700.1" width="99.8" height="49.8" stroke="#C7B7A4" stroke-width="0.2"/>
<rect x="120.1" y="700.1" width="99.8" height="49.8" stroke="#C7B7A4" stroke-width="0.2"/>
<rect x="220.1" y="700.1" width="99.8" height="49.8" stroke="#C7B7A4" stroke-width="0.2"/>
<rect x="320.1" y="700.1" width="99.8" height="49.8" stroke="#C7B7A4" stroke-width="0.2"/>
<rect x="420.1" y="700.1" width="99.8" height="49.8" stroke="#C7B7A4" stroke-width="0.2"/>
<rect x="520.1" y="700.1" width="99.8" height="49.8" stroke="#C7B7A4" stroke-width="0.2"/>
<rect x="620.1" y="700.1" width="99.8" height="49.8" stroke="#C7B7A4" stroke-width="0.2"/>
<rect x="720.1" y="700.1" width="99.8" height="49.8" stroke="#C7B7A4" stroke-width="0.2"/>
<rect x="820.1" y="700.1" width="99.8" height="49.8" stroke="#C7B7A4" stroke-width="0.2"/>
<rect x="920.1" y="700.1" width="99.8" height="49.8" stroke="#C7B7A4" stroke-width="0.2"/>
<rect x="1020.1" y="700.1" width="99.8" height="49.8" stroke="#C7B7A4" stroke-width="0.2"/>
<rect x="1120.1" y="700.1" width="99.8" height="49.8" stroke="#C7B7A4" stroke-width="0.2"/>
<rect x="1220.1" y="700.1" width="99.8" height="49.8" stroke="#C7B7A4" stroke-width="0.2"/>
<rect x="1320.1" y="700.1" width="99.8" height="49.8" stroke="#C7B7A4" stroke-width="0.2"/>
<rect x="20.1" y="750.1" width="99.8" height="49.8" stroke="#C7B7A4" stroke-width="0.2"/>
<rect x="120.1" y="750.1" width="99.8" height="49.8" stroke="#C7B7A4" stroke-width="0.2"/>
<rect x="220.1" y="750.1" width="99.8" height="49.8" stroke="#C7B7A4" stroke-width="0.2"/>
<rect x="320.1" y="750.1" width="99.8" height="49.8" stroke="#C7B7A4" stroke-width="0.2"/>
<rect x="420.1" y="750.1" width="99.8" height="49.8" stroke="#C7B7A4" stroke-width="0.2"/>
<rect x="520.1" y="750.1" width="99.8" height="49.8" stroke="#C7B7A4" stroke-width="0.2"/>
<rect x="620.1" y="750.1" width="99.8" height="49.8" stroke="#C7B7A4" stroke-width="0.2"/>
<rect x="720.1" y="750.1" width="99.8" height="49.8" stroke="#C7B7A4" stroke-width="0.2"/>
<rect x="820.1" y="750.1" width="99.8" height="49.8" stroke="#C7B7A4" stroke-width="0.2"/>
<rect x="920.1" y="750.1" width="99.8" height="49.8" stroke="#C7B7A4" stroke-width="0.2"/>
<rect x="1020.1" y="750.1" width="99.8" height="49.8" stroke="#C7B7A4" stroke-width="0.2"/>
<rect x="1120.1" y="750.1" width="99.8" height="49.8" stroke="#C7B7A4" stroke-width="0.2"/>
<rect x="1220.1" y="750.1" width="99.8" height="49.8" stroke="#C7B7A4" stroke-width="0.2"/>
<rect x="1320.1" y="750.1" width="99.8" height="49.8" stroke="#C7B7A4" stroke-width="0.2"/>
<rect width="1440" height="800" fill="url(#paint0_radial_4576_135)"/>
</g>
<defs>
<radialGradient id="paint0_radial_4576_135" cx="0" cy="0" r="1" gradientUnits="userSpaceOnUse" gradientTransform="translate(720 400) rotate(90) scale(400 720)">
<stop stop-color="#F8F3EE" stop-opacity="0"/>
<stop offset="1" stop-color="#F8F3EE"/>
</radialGradient>
<clipPath id="clip0_4576_135">
<rect width="1440" height="800" fill="white"/>
</clipPath>
</defs>
</svg>
