<svg width="16" height="16" viewBox="0 0 16 16" fill="none" xmlns="http://www.w3.org/2000/svg">
<path d="M14 0.5H2C1.175 0.5 0.5 1.175 0.5 2V15.5L3.5 12.5H14C14.825 12.5 15.5 11.825 15.5 11V2C15.5 1.175 14.825 0.5 14 0.5ZM14 11H2.9L2 11.9V2H14V11ZM8.15 3.125C7.475 3.125 6.95 3.275 6.575 3.5C6.125 3.8 5.9 4.25 5.975 4.775H7.475C7.475 4.55 7.55 4.4 7.7 4.325C7.85 4.25 8 4.175 8.225 4.175C8.45 4.175 8.675 4.25 8.825 4.4C8.975 4.55 9.05 4.7 9.05 4.925C9.05 5.15 8.975 5.3 8.9 5.45C8.75 5.6 8.6 5.75 8.45 5.825C8.075 6.05 7.775 6.275 7.625 6.425C7.325 6.65 7.25 6.875 7.25 7.25H8.75C8.75 7.025 8.825 6.875 8.825 6.725C8.9 6.575 9.05 6.5 9.2 6.35C9.575 6.2 9.8 5.975 10.025 5.675C10.25 5.375 10.325 5.075 10.325 4.775C10.325 4.25 10.1 3.8 9.725 3.5C9.425 3.275 8.825 3.125 8.15 3.125ZM7.25 8V9.5H8.75V8H7.25Z" fill="#86633A"/>
</svg>
