<svg width="18" height="17" viewBox="0 0 18 17" fill="none" xmlns="http://www.w3.org/2000/svg">
<path d="M13.5675 8.8275L14.67 13.575L10.5 11.055L6.33001 13.575L7.42501 8.8275L3.75001 5.625L8.60251 5.22L10.5 0.75L12.3975 5.22L17.25 5.625L13.5675 8.8275ZM1.50001 9.3225C1.64251 9.3225 1.78501 9.2775 1.91251 9.195L4.31251 7.6125L3.13501 6.5925L1.08751 7.9425C0.74176 8.1675 0.64576 8.625 0.87001 9C1.02001 9.2025 1.26001 9.3225 1.50001 9.3225ZM0.87001 16.1625C1.02001 16.38 1.26001 16.5 1.50001 16.5C1.64251 16.5 1.78501 16.4625 1.91251 16.38L4.99501 14.3475L5.25001 13.32L5.48251 12.2325L1.08751 15.12C0.74176 15.3525 0.64576 15.8175 0.87001 16.1625ZM1.08751 11.535C0.74176 11.76 0.64576 12.225 0.87001 12.57C1.02001 12.795 1.26001 12.9075 1.50001 12.9075C1.64251 12.9075 1.78501 12.87 1.91251 12.7875L5.97751 10.125L6.18001 9.2325L5.49001 8.625L1.08751 11.535Z" fill="#86633A"/>
</svg>
